<svg width="62" height="67" viewBox="0 0 62 67" fill="none" xmlns="http://www.w3.org/2000/svg" xmlns:xlink="http://www.w3.org/1999/xlink">
<path d="M62 39.169C62 54.5396 48.1208 66.9999 31 66.9999C13.8792 66.9999 0 54.5396 0 39.169C0 23.7984 13.8792 11.3381 31 11.3381C48.1208 11.3381 62 23.7984 62 39.169Z"/>
<path d="M58 39.169C58 26.5921 46.4485 15.4612 31 15.4612C15.5515 15.4612 4 26.5921 4 39.169C4 51.746 15.5515 62.8768 31 62.8768V66.9999C13.8792 66.9999 0 54.5396 0 39.169C0 23.7984 13.8792 11.3381 31 11.3381C48.1208 11.3381 62 23.7984 62 39.169C62 54.5396 48.1208 66.9999 31 66.9999V62.8768C46.4485 62.8768 58 51.746 58 39.169Z" fill="black"/>
<path d="M31.5128 40.9628L31.5128 19.2275C44.9562 20.1337 52.1538 26.8241 53.3354 40.9627L31.5128 40.9628Z" fill="black"/>
<path d="M31.513 19.228C44.9562 20.1343 52.1537 26.8243 53.3353 40.9629L31.5127 40.9628L31.513 19.228ZM48.6916 36.841C47.8161 32.8847 46.2785 30.0926 44.2668 28.122C42.2296 26.1266 39.3984 24.6719 35.5124 23.8927L35.5131 36.8407L48.6916 36.841Z" fill="black"/>
<path d="M26.9995 4.12305H34.9995V14.4308H26.9995V4.12305Z" fill="black"/>
<path d="M23.0967 8.55713L22.9998 0.184312L37.9988 -1.53751e-05L38.0956 8.3728L23.0967 8.55713Z" fill="black"/>
<path d="M45.8945 10.3076L50.5148 12.9299L47.6209 18.3476L43.0006 15.7253L45.8945 10.3076Z" fill="black"/>
</svg>
